<svg xmlns="http://www.w3.org/2000/svg" xmlns:xlink="http://www.w3.org/1999/xlink" viewBox="0 0 296 296"><path d="M97.282 159.625l-52.627-29.162-.013-57c-.012-53.32.106-57.258 1.83-61 2.23-4.84 5.4-7.888 10.324-9.952C60.043 1.15 71.498.966 150.626.985c85.493.02 90.337.117 94.125 1.868 4.833 2.234 7.874 5.4 9.936 10.34 1.333 3.196 1.545 11.496 1.544 60.486v56.782l-52.474 29-53.16 29.162c-.377.1-24.368-12.96-53.313-29z" fill="#4e4f4e"/><g fill="#2c774b"><path d="M101.74 189.83c-25.935-14.396-46.133-25.983-48.9-28.182-7.463-5.956-8.446-16.897-8.457-23.152 0-5.137.034-9.296.346-9.296S69.14 142.22 98 158.187l52.474 29.03 52.57-29.03 53.084-29.03c.908-.74.073 18.2-1.316 22.285-3.126 9.173-5.5 10.804-56.15 38.703l-48.5 25.937c-.698-.04-22.488-11.854-48.423-26.25z"/><use xlink:href="#A"/><use xlink:href="#A" x="-.34" y="39.2"/></g><defs><path id="A" d="M101.4 229.52c-25.935-14.396-46.133-25.983-48.9-28.182-7.463-5.956-8.446-16.897-8.457-23.152 0-5.137.034-9.296.346-9.296s24.4 13.02 53.262 28.987l52.474 29.03 52.568-29.03 53.084-29.03c.908-.74.073 18.2-1.316 22.285-3.125 9.173-5.5 10.804-56.15 38.703l-48.5 25.937c-.698-.04-22.488-11.854-48.423-26.25z"/></defs></svg>