<?xml version="1.0" standalone="no"?>
<!DOCTYPE svg PUBLIC "-//W3C//DTD SVG 20010904//EN"
 "http://www.w3.org/TR/2001/REC-SVG-20010904/DTD/svg10.dtd">
<svg version="1.0" xmlns="http://www.w3.org/2000/svg"
 width="700.000000pt" height="700.000000pt" viewBox="0 0 700.000000 700.000000"
 preserveAspectRatio="xMidYMid meet">
<metadata>
Created by potrace 1.14, written by Peter Selinger 2001-2017
</metadata>
<g transform="translate(0.000000,700.000000) scale(0.100000,-0.100000)"
fill="#000000" stroke="none">
<path d="M1977 6974 c-1 -1 -123 -4 -272 -7 -148 -3 -281 -8 -295 -11 -14 -3
-38 -9 -55 -12 -16 -4 -32 -9 -35 -13 -3 -3 -22 -15 -43 -26 -88 -44 -189
-185 -202 -280 -14 -110 -17 -337 -19 -1625 -2 -1096 0 -1410 10 -1465 37
-206 105 -311 264 -409 98 -61 374 -222 460 -269 30 -16 64 -35 75 -42 20 -12
376 -212 490 -275 33 -18 135 -75 228 -127 92 -51 169 -93 172 -93 3 0 22 -10
43 -23 20 -13 78 -45 127 -72 50 -26 99 -54 110 -60 11 -7 56 -32 100 -55 44
-24 125 -68 180 -97 185 -100 244 -126 258 -115 7 6 134 75 282 155 149 79
306 163 350 187 152 81 230 123 305 163 158 83 433 234 715 392 223 124 562
327 575 344 3 3 31 25 63 49 109 82 169 192 182 341 4 36 8 82 11 101 5 43 5
2244 -1 2600 -6 371 -11 415 -53 499 -38 76 -120 156 -195 192 -67 31 -101 37
-247 45 -85 5 -3577 13 -3583 8z"/>
<path d="M6034 3001 c-5 -5 -38 -24 -74 -43 -116 -62 -189 -102 -550 -300
-464 -254 -466 -256 -530 -290 -30 -17 -77 -43 -105 -58 -116 -64 -234 -129
-295 -162 -36 -20 -89 -50 -118 -67 -29 -17 -55 -31 -57 -31 -2 0 -75 -40
-162 -88 -87 -49 -189 -106 -228 -127 -38 -21 -136 -75 -216 -120 l-146 -82
-69 36 c-38 20 -71 38 -74 41 -3 3 -61 37 -130 75 -173 95 -167 91 -535 295
-181 100 -359 198 -395 217 -36 19 -69 38 -75 43 -5 4 -55 31 -110 60 -55 29
-104 56 -110 60 -9 6 -136 76 -413 227 -34 18 -77 42 -95 52 -31 17 -100 55
-217 118 -214 116 -271 144 -279 139 -12 -8 -6 -348 8 -411 6 -27 12 -59 15
-70 9 -45 49 -131 83 -182 46 -70 97 -107 328 -243 105 -61 197 -115 205 -120
8 -6 22 -13 30 -17 8 -4 38 -20 65 -36 28 -16 124 -71 215 -122 91 -51 182
-102 202 -113 21 -12 68 -38 105 -58 37 -21 84 -47 103 -59 19 -11 46 -26 60
-33 14 -6 32 -16 40 -22 20 -13 391 -216 578 -316 37 -20 81 -44 97 -54 35
-20 177 -96 283 -152 62 -32 77 -36 95 -27 12 7 74 40 137 74 63 34 165 88
225 120 61 32 149 80 198 107 48 26 89 48 91 48 2 0 55 28 117 63 63 34 139
75 169 90 30 16 62 32 70 37 8 5 56 31 105 58 113 61 216 117 258 141 18 10
59 33 92 51 586 323 830 477 910 574 82 101 112 228 120 522 4 137 -1 173 -21
155z"/>
<path d="M1039 2078 c-6 -15 -3 -314 3 -366 20 -155 82 -296 162 -370 44 -40
111 -87 189 -131 64 -36 99 -57 224 -130 67 -39 126 -71 132 -71 6 0 11 -4 11
-10 0 -5 4 -10 9 -10 5 0 49 -23 98 -51 48 -28 112 -64 141 -80 28 -16 76 -42
105 -58 28 -16 92 -52 140 -80 49 -28 90 -51 92 -51 2 0 32 -16 67 -36 34 -20
88 -50 118 -66 30 -17 75 -42 100 -56 111 -61 365 -200 465 -255 363 -197 421
-227 439 -227 9 0 55 22 103 48 49 27 129 70 178 97 50 26 122 64 160 85 105
56 210 112 310 165 50 26 113 60 140 75 28 15 95 51 150 80 55 29 134 72 175
95 41 23 102 57 135 75 242 134 569 318 646 364 51 31 93 56 95 56 2 0 51 32
110 71 216 146 275 238 299 464 8 82 16 355 10 364 -5 10 -32 -4 -265 -131
-85 -47 -247 -135 -360 -197 -113 -61 -212 -115 -220 -120 -8 -6 -37 -22 -65
-37 -50 -27 -433 -236 -512 -280 -85 -47 -132 -73 -408 -226 -376 -208 -437
-242 -455 -251 -8 -4 -33 -18 -55 -30 -22 -13 -68 -38 -101 -56 l-62 -34 -158
88 c-325 179 -1011 558 -1054 583 -103 57 -421 232 -495 272 -44 23 -84 46
-90 50 -5 4 -50 29 -100 55 -49 27 -108 59 -130 72 -22 12 -47 26 -55 30 -8 4
-89 47 -180 96 -194 105 -240 128 -241 125z"/>
</g>
</svg>
